<?xml version="1.0" standalone="no"?>
<!DOCTYPE svg PUBLIC "-//W3C//DTD SVG 20010904//EN"
 "http://www.w3.org/TR/2001/REC-SVG-20010904/DTD/svg10.dtd">
<svg version="1.0" xmlns="http://www.w3.org/2000/svg"
 width="84.000000pt" height="33.000000pt" viewBox="0 0 336.000000 132.000000"
 preserveAspectRatio="xMidYMid meet">

<g transform="translate(0.000000,132.000000) scale(0.100000,-0.100000)"
fill="#ffffff" stroke="none">
<path d="M396 1304 c-195 -38 -327 -164 -354 -336 l-9 -58 152 0 153 0 11 45
c15 60 62 112 114 126 23 6 74 9 114 7 l73 -3 0 117 0 118 -92 -1 c-51 0 -124
-7 -162 -15z"/>
<path d="M740 1127 c-1 -133 7 -233 32 -444 l33 -273 62 0 c44 0 63 4 63 13 0
6 16 133 35 282 19 148 35 287 35 309 0 99 -110 229 -232 275 l-28 11 0 -173z"/>
<path d="M2150 1090 l0 -40 50 0 50 0 0 40 0 40 -50 0 -50 0 0 -40z"/>
<path d="M1244 981 c-37 -22 -64 -58 -64 -83 0 -15 9 -18 49 -18 40 0 50 3 54
20 11 41 96 48 117 10 22 -41 -8 -59 -122 -75 -29 -4 -60 -16 -78 -31 -26 -22
-30 -32 -30 -76 0 -42 5 -54 30 -80 29 -29 34 -30 100 -26 47 2 75 9 88 21 17
16 20 16 25 2 5 -10 20 -15 54 -15 l48 0 -5 153 c-5 165 -9 175 -61 203 -43
22 -166 19 -205 -5z m166 -200 c0 -10 -5 -32 -11 -49 -22 -62 -129 -65 -129
-3 0 35 13 46 70 59 65 14 70 14 70 -7z"/>
<path d="M1683 980 c-27 -16 -33 -17 -33 -5 0 11 -12 15 -50 15 l-50 0 0 -180
0 -180 50 0 50 0 0 116 c0 143 13 174 72 174 48 0 58 -29 58 -167 l0 -123 50
0 50 0 0 123 c0 142 10 167 64 167 52 0 56 -11 56 -157 l0 -133 56 0 56 0 -4
143 c-4 156 -15 193 -63 215 -45 21 -116 15 -150 -12 l-30 -24 -28 24 c-37 31
-108 33 -154 4z"/>
<path d="M2363 975 c-107 -64 -113 -254 -11 -326 44 -32 148 -38 198 -12 31
16 80 74 80 94 0 5 -20 9 -45 9 -25 0 -45 -4 -45 -10 0 -5 -14 -17 -31 -26
-57 -29 -129 4 -129 58 0 16 12 18 124 18 78 0 127 4 131 11 12 18 -5 96 -28
131 -55 81 -159 104 -244 53z m139 -65 c14 -11 28 -29 31 -40 5 -19 1 -20 -74
-20 -82 0 -88 4 -68 41 21 40 74 49 111 19z"/>
<path d="M2805 988 c-11 -6 -26 -18 -32 -26 -11 -14 -13 -13 -13 6 0 20 -5 22
-50 22 l-50 0 0 -180 0 -180 50 0 50 0 0 109 c0 150 13 181 77 181 53 0 63
-25 63 -167 l0 -123 51 0 50 0 -3 156 -3 156 -33 29 c-27 24 -41 29 -85 29
-28 0 -61 -6 -72 -12z"/>
<path d="M3092 985 c-33 -15 -62 -63 -62 -105 0 -35 50 -76 110 -90 30 -7 70
-18 88 -26 57 -23 34 -78 -33 -78 -36 0 -75 27 -75 51 0 11 -12 13 -47 11 -52
-3 -57 -14 -30 -66 27 -56 176 -84 247 -47 61 31 88 103 59 157 -13 24 -77 53
-136 63 -77 12 -108 64 -48 79 30 8 85 -12 85 -30 0 -10 14 -14 50 -14 30 0
50 4 50 11 0 24 -36 70 -66 84 -40 19 -148 19 -192 0z"/>
<path d="M2150 810 l0 -180 50 0 50 0 0 180 0 180 -50 0 -50 0 0 -180z"/>
<path d="M638 805 c-3 -3 -68 -14 -144 -25 -181 -27 -256 -45 -327 -83 -67
-35 -100 -71 -136 -147 -23 -49 -26 -67 -26 -165 0 -98 3 -116 26 -165 49
-104 123 -163 238 -190 77 -18 219 -8 306 21 l70 24 3 106 3 107 -43 -21 c-32
-16 -60 -21 -113 -21 -129 2 -185 48 -185 152 0 128 51 163 303 206 l37 7 0
99 c0 97 -1 106 -12 95z"/>
<path d="M1875 570 c-28 -31 -8 -37 23 -7 19 20 22 27 11 27 -9 0 -24 -9 -34
-20z"/>
<path d="M1230 527 c-27 -14 -38 -55 -22 -84 7 -12 5 -21 -10 -33 -28 -22 -27
-69 2 -92 25 -21 58 -23 93 -7 18 8 30 8 46 0 31 -17 49 -2 22 18 -19 15 -21
21 -11 46 12 30 7 55 -10 55 -5 0 -10 -11 -10 -24 0 -38 -21 -43 -46 -11 l-22
28 29 24 c32 27 35 41 17 65 -19 23 -50 29 -78 15z m57 -34 c4 -10 -2 -23 -18
-35 -23 -20 -23 -20 -32 1 -5 11 -7 27 -4 35 8 21 46 20 54 -1z m-7 -156 c-4
-5 -20 -7 -36 -5 -33 3 -45 38 -23 64 10 13 16 10 40 -18 15 -18 24 -37 19
-41z"/>
<path d="M1512 521 c-17 -10 -12 -213 5 -218 9 -3 13 22 15 94 l3 98 35 -95
c21 -55 41 -95 49 -95 7 0 30 41 52 95 l38 95 0 -97 c1 -80 4 -98 16 -98 21 0
22 215 1 223 -23 9 -42 -15 -71 -90 -16 -40 -31 -73 -34 -73 -4 0 -19 34 -34
75 -28 74 -51 101 -75 86z"/>
<path d="M1815 517 c-3 -7 -4 -58 -3 -113 l3 -99 58 -3 c46 -2 57 0 57 13 0
11 -11 15 -45 15 l-45 0 0 40 0 40 40 0 c22 0 40 5 40 10 0 6 -18 10 -40 10
-39 0 -40 1 -40 35 0 35 0 35 46 35 65 0 53 24 -14 28 -37 2 -54 -1 -57 -11z"/>
<path d="M1967 524 c-15 -16 -5 -24 28 -24 l35 0 0 -100 c0 -82 3 -100 15
-100 12 0 15 18 15 100 l0 100 36 0 c24 0 34 4 32 13 -5 13 -148 23 -161 11z"/>
<path d="M2177 524 c-4 -4 -7 -56 -7 -116 0 -89 3 -108 15 -108 11 0 15 12 15
51 0 47 2 50 23 47 15 -2 29 -18 45 -50 22 -47 42 -63 42 -33 0 9 -9 34 -20
57 -17 35 -17 42 -5 55 18 18 20 67 3 81 -17 13 -101 26 -111 16z m81 -33 c8
-4 12 -19 10 -32 -2 -19 -10 -25 -35 -27 -32 -3 -33 -2 -33 32 0 31 3 36 23
36 12 0 28 -4 35 -9z"/>
<path d="M2414 520 c-12 -5 -29 -19 -38 -32 -19 -26 -21 -105 -5 -141 23 -50
100 -62 145 -24 23 20 28 34 32 85 4 58 3 63 -26 92 -31 31 -66 37 -108 20z
m90 -42 c9 -12 16 -41 16 -63 0 -56 -22 -85 -65 -85 -43 0 -65 29 -65 85 0 56
22 85 65 85 24 0 39 -7 49 -22z"/>
<path d="M2617 523 c-4 -3 -7 -55 -7 -115 0 -89 3 -108 15 -108 11 0 15 12 15
45 0 43 2 45 28 45 43 0 72 26 72 63 0 43 -10 56 -51 67 -40 12 -63 13 -72 3z
m81 -35 c18 -18 14 -56 -7 -68 -40 -21 -51 -13 -51 35 0 40 2 45 23 45 13 0
28 -5 35 -12z"/>
<path d="M2840 517 c-13 -7 -30 -24 -37 -37 -16 -31 -17 -101 -2 -133 23 -50
100 -62 145 -24 23 20 28 34 32 85 4 58 3 63 -26 92 -33 33 -70 38 -112 17z
m94 -39 c9 -12 16 -41 16 -63 0 -56 -22 -85 -65 -85 -43 0 -65 29 -65 85 0 56
22 85 65 85 24 0 39 -7 49 -22z"/>
<path d="M3045 517 c-3 -7 -4 -58 -3 -113 l3 -99 53 -3 c42 -2 52 0 52 12 0
12 -11 16 -40 16 l-40 0 0 94 c0 86 -12 129 -25 93z"/>
<path d="M3207 524 c-4 -4 -7 -56 -7 -116 l0 -109 57 3 c71 4 88 28 19 28
l-46 0 0 40 c0 39 1 40 35 40 19 0 35 5 35 10 0 6 -16 10 -35 10 -33 0 -35 2
-35 35 0 35 0 35 46 35 32 0 44 4 42 13 -5 13 -99 23 -111 11z"/>
<path d="M753 248 c14 -24 37 -65 52 -93 15 -27 35 -61 45 -75 9 -14 20 -33
23 -42 5 -15 19 -18 72 -18 l65 0 0 135 0 135 -141 0 -141 0 25 -42z"/>
</g>
</svg>
